<?xml version="1.0" encoding="UTF-8"?>
<svg width="1776px" height="512px" viewBox="0 0 1776 512" version="1.1" xmlns="http://www.w3.org/2000/svg" xmlns:xlink="http://www.w3.org/1999/xlink">
    <title>nextmark-framed</title>
    <g id="nextmark-framed" stroke="none" stroke-width="1" fill="none" fill-rule="evenodd">
        <path d="M152,40 L1624,40 C1659.34622,40 1688,68.653776 1688,104 L1688,408 C1688,443.346224 1659.34622,472 1624,472 L152,472 C116.653776,472 88,443.346224 88,408 L88,104 C88,68.653776 116.653776,40 152,40 Z" id="Rectangle" fill="#0D1117"></path>
        <path d="M1576,136 C1584.83656,136 1592,143.163444 1592,152 L1592,360 C1592,368.836556 1584.83656,376 1576,376 L1144,376 C1135.16344,376 1128,368.836556 1128,360 L1128,152 C1128,143.163444 1135.16344,136 1144,136 L1576,136 Z M184.863379,152 C189.405455,152 193.733482,153.930468 196.768158,157.309994 L196.768158,157.309994 L366.255951,346.057764 C366.445619,346.268984 366.71612,346.389639 367,346.389639 C367.552285,346.389639 368,345.941923 368,345.389639 L368,345.389639 L368,160 C368,155.581722 371.581722,152 376,152 L376,152 L376,360 L375.136621,360 C370.594545,360 366.266518,358.069532 363.231842,354.690006 L363.231842,354.690006 L193.744049,165.942236 C193.554381,165.731016 193.28388,165.610361 193,165.610361 C192.447715,165.610361 192,166.058077 192,166.610361 L192,166.610361 L192,352 C192,356.418278 188.418278,360 184,360 L184,360 L184,152 Z M616,152 C616,156.418278 612.418278,160 608,160 L440,160 C435.581722,160 432,163.581722 432,168 L432,344 C432,348.418278 435.581722,352 440,352 L608,352 C612.334914,352 615.864543,355.447838 615.996193,359.750821 L616,360 L440,360 C431.163444,360 424,352.836556 424,344 L424,168 C424,159.163444 431.163444,152 440,152 L616,152 Z M672,152 L754.04761,243.371202 C756.999574,246.658616 762.057589,246.930553 765.345003,243.978589 C765.558196,243.78715 765.760951,243.584396 765.95239,243.371202 L848,152 L853,152 C854.597681,152 855.903661,153.24892 855.994907,154.823727 L856,155 L770.164354,250.632121 C767.435327,253.672614 767.435837,258.280929 770.165536,261.320818 L848,348 L856,357 C856,358.656854 854.656854,360 853,360 L848,360 L765.953555,268.590005 C763.002308,265.301947 757.944353,265.028908 754.656295,267.980154 C754.442194,268.172324 754.238615,268.375903 754.046445,268.590005 L672,360 L667,360 C665.402319,360 664.096339,358.75108 664.005093,357.176273 L664,357 L672,348 L749.834464,261.320818 C752.564163,258.280929 752.564673,253.672614 749.835646,250.632121 L664,155 C664,153.343146 665.343146,152 667,152 L672,152 Z M1096,152 L1095.99619,152.249179 C1095.86454,156.552162 1092.33491,160 1088,160 L1088,160 L1012,160 C1007.58172,160 1004,163.581722 1004,168 L1004,168 L1004,352 C1004,356.418278 1000.41828,360 996,360 L996,360 L996,168 C996,163.581722 992.418278,160 988,160 L988,160 L912,160 C907.581722,160 904,156.418278 904,152 L904,152 L1096,152 Z M1328,152 L1245.95239,243.371202 C1245.76095,243.584396 1245.5582,243.78715 1245.345,243.978589 C1242.12608,246.869053 1237.20956,246.668548 1234.23482,243.572737 L1234.04761,243.371202 L1152,152 C1147.66509,152 1144.13546,155.447838 1144.00381,159.750821 L1144,160 L1144,360 L1144.24918,359.996193 C1148.46941,359.867075 1151.86707,356.469413 1151.99619,352.249179 L1152,352 L1152,166.610361 C1152,166.326482 1152.12065,166.05598 1152.33187,165.866313 C1152.71119,165.525702 1153.27909,165.528464 1153.65444,165.85411 L1153.74405,165.942236 L1228.14177,248.794241 C1228.52681,249.223043 1228.93475,249.630727 1229.36378,250.015513 C1235.85208,255.83462 1245.78142,255.379275 1251.71301,249.05395 L1251.95782,248.786999 L1326.25555,165.945067 C1326.44523,165.733573 1326.71591,165.612739 1327,165.612739 C1327.51284,165.612739 1327.93551,165.99878 1327.99327,166.496118 L1328,166.612739 L1328,352 C1328,356.334914 1331.44784,359.864543 1335.75082,359.996193 L1336,360 L1336,160 C1336,155.581722 1332.41828,152 1328,152 Z M1484,152 C1479.66509,152 1476.13546,155.447838 1476.00381,159.750821 L1476,160 L1476,333.043596 C1476,334.179112 1475.51739,335.261115 1474.67251,336.019784 C1473.0836,337.446571 1470.66742,337.367082 1469.17485,335.875446 L1469.02381,335.716106 L1392,249.940052 L1387,249.940052 C1385.40232,249.940052 1384.09634,251.188972 1384.00509,252.763779 L1384,252.940052 L1474.09807,353.361813 C1474.29126,353.577134 1474.49598,353.781818 1474.71134,353.974963 C1477.93202,356.863469 1482.84842,356.659974 1485.82127,353.562355 L1486.00836,353.360706 L1568,261.940052 L1576,252.940052 L1575.99491,252.763779 C1575.90704,251.247298 1574.69275,250.033012 1573.17627,249.945145 L1573,249.940052 L1568,249.940052 L1490.97619,335.716106 C1490.21752,336.560982 1489.13552,337.043596 1488,337.043596 C1485.8578,337.043596 1484.10892,335.359628 1484.0049,333.243237 L1484,333.043596 L1484,152 Z M616,252 C616,256.418278 612.418278,260 608,260 L496,260 C491.665086,260 488.135457,256.552162 488.003807,252.249179 L488,252 L616,252 Z" id="Combined-Shape" fill="#FFFFFF"></path>
    </g>
</svg>