<?xml version="1.0" encoding="UTF-8"?>
<svg width="1520px" height="384px" viewBox="0 0 1520 384" version="1.1" xmlns="http://www.w3.org/2000/svg" xmlns:xlink="http://www.w3.org/1999/xlink">
    <title>nextmark-framed</title>
    <g id="nextmark-framed" stroke="none" stroke-width="1" fill="none" fill-rule="evenodd">
        <path d="M1456,70 C1460.97056,70 1465.47056,72.0147186 1468.72792,75.2720779 C1471.88948,78.4336326 1473.88041,82.7658063 1473.99479,87.5626618 L1474,88 L1474,296 C1474,300.970563 1471.98528,305.470563 1468.72792,308.727922 C1465.56637,311.889477 1461.23419,313.880412 1456.43734,313.994791 L1456,314 L1024,314 C1019.02944,314 1014.52944,311.985281 1011.27208,308.727922 C1008.11052,305.566367 1006.11959,301.234194 1006.00521,296.437338 L1006,296 L1006,88 C1006,83.0294373 1008.01472,78.5294373 1011.27208,75.2720779 C1014.43363,72.1105233 1018.76581,70.1195878 1023.56266,70.0052089 L1024,70 L1456,70 Z M1208.83973,90.0582971 L1127.44049,180.707453 L1127.19651,180.969555 C1127.03078,181.141335 1126.85891,181.307154 1126.68125,181.466687 C1124.65385,183.287211 1122.08884,184.128054 1119.53623,183.990817 C1117.03183,183.856172 1114.53199,182.778351 1112.58033,180.730633 L1112.58033,180.730633 L1031.16049,90.0585366 L1030.8857,90.1038388 C1029.70416,90.3273106 1028.64514,90.9013579 1027.81925,91.7272491 C1026.73643,92.8100672 1026.05803,94.3199688 1026.00004,96.0304457 L1026.00004,96.0304457 L1026.24615,293.562192 L1026.52614,293.43908 C1027.1707,293.135324 1027.75276,292.717153 1028.24747,292.206784 C1029.29194,291.129244 1029.94346,289.645889 1030,287.968408 L1030,287.968408 L1030,102.610361 L1030.00638,102.414634 C1030.05729,101.63531 1030.41071,100.903448 1030.99562,100.378215 C1031.59433,99.8405975 1032.34544,99.5828904 1033.12697,99.6249078 C1033.8075,99.6614958 1034.53526,99.9298756 1035.17175,100.538731 L1035.17175,100.538731 L1109.62986,183.45799 L1109.9734,183.826975 C1110.20679,184.068781 1110.44886,184.302145 1110.69913,184.526603 C1113.54399,187.078052 1117.14563,188.250116 1120.71066,188.056273 C1124.26663,187.862923 1127.78124,186.311769 1130.48388,183.434963 L1130.48388,183.434963 L1204.76664,100.609721 L1204.90217,100.468172 C1205.46084,99.9216163 1206.21328,99.6127394 1207,99.6127394 C1207.80648,99.6127394 1208.53895,99.9247777 1209.09148,100.477313 C1209.57742,100.963253 1209.93828,101.653498 1210,102.528605 L1210,102.528605 L1210,288 L1210.00669,288.285472 C1210.07784,289.799084 1210.71242,291.165917 1211.72725,292.180751 C1212.35572,292.809225 1213.12807,293.301463 1214,293.615233 L1214,293.615233 L1214,96 L1213.99308,95.7092946 C1213.91956,94.1681084 1213.26456,92.779276 1212.24264,91.7573593 C1211.34361,90.8583334 1210.16061,90.2432823 1208.83973,90.0582971 L1208.83973,90.0582971 Z M1362,90.3442422 C1361.17469,90.6393449 1360.43267,91.1138317 1359.81925,91.7272491 C1358.73618,92.8103136 1358.05772,94.3206558 1358,96.0316132 L1358,96.0316132 L1358,269.043596 L1357.99333,269.326663 C1357.91789,270.925706 1357.20567,272.433097 1356.00876,273.507878 C1354.79899,274.594216 1353.27129,275.100478 1351.73652,275.017967 C1350.26091,274.938637 1348.76738,274.31235 1347.56723,273.08745 L1347.56723,273.08745 L1271.10793,187.940052 L1267,187.940052 L1266.91515,187.943941 C1266.69036,187.965243 1266.4743,188.078455 1266.1942,188.390811 L1266.1942,188.390811 L1355.58673,288.02619 L1355.73448,288.184997 C1355.83487,288.289062 1355.939,288.389481 1356.04668,288.486053 C1357.25546,289.570157 1358.78383,290.072289 1360.30538,289.989557 C1361.83437,289.906421 1363.3492,289.234824 1364.54267,287.999466 L1364.54267,287.999466 L1446.50149,196.615405 L1453.70854,188.255472 L1453.60418,188.16947 C1453.42043,188.037251 1453.18926,187.960649 1452.93469,187.940052 L1452.93469,187.940052 L1448.89207,187.940052 L1372.46428,273.052361 L1372.27019,273.258517 C1371.1457,274.397877 1369.60865,275.043596 1368,275.043596 C1366.37119,275.043596 1364.89395,274.397051 1363.80727,273.310369 C1362.75877,272.261877 1362.06773,270.794869 1362,269.086597 L1362,269.086597 Z M64.8633785,86 C69.8272458,86 74.5638527,88.0494877 77.9601386,91.6519174 L77.9601386,91.6519174 L245.993371,278.771977 L246,96 C246,93.294891 247.074143,90.8406865 248.819073,89.0405166 C251.006316,86.7840307 254.247773,85.5559486 257.748599,86.1480318 L257.748599,86.1480318 L258.002397,298 L255.136621,298 C250.172754,298 245.436147,295.950512 242.039861,292.348083 L242.039861,292.348083 L74.0066286,105.228023 L74,288 C74,290.705109 72.9258567,293.159313 71.1809271,294.959483 C68.9936841,297.215969 65.7522272,298.444051 62.2514011,297.851968 L62.2514011,297.851968 L61.9976026,86 Z M497.806014,86 C498.491384,89.5387109 497.309236,92.8328995 495.071068,95.0710678 C493.261424,96.8807119 490.761424,98 488,98 L488,98 L320,98 C318.343146,98 316.843146,98.6715729 315.757359,99.7573593 C314.671573,100.843146 314,102.343146 314,104 L314,104 L314,280 C314,281.656854 314.671573,283.156854 315.757359,284.242641 C316.843146,285.328427 318.343146,286 320,286 L320,286 L488,286 C490.705109,286 493.159313,287.074143 494.959483,288.819073 C497.215883,291.006232 498.443957,294.247524 497.852036,297.748195 L497.852036,297.748195 L320,298 C315.029437,298 310.529437,295.985281 307.272078,292.727922 C304.014719,289.470563 302,284.970563 302,280 L302,280 L302,104 C302,99.0294373 304.014719,94.5294373 307.272078,91.2720779 C310.529437,88.0147186 315.029437,86 320,86 L320,86 Z M733,86 C734.327634,86 735.53435,86.5175235 736.429642,87.3616434 C737.535355,88.4041571 738.164799,89.9453201 737.962491,91.624753 L737.962491,91.624753 L651.652746,187.968044 C650.629361,189.108228 650.117764,190.54238 650.117923,191.976475 C650.118081,193.410569 650.629995,194.844608 651.653633,195.984566 L651.653633,195.984566 L729.494819,282.671272 L737.932026,292.163131 C738.208781,293.870317 737.62015,295.450918 736.535534,296.535534 C735.630712,297.440356 734.380712,298 733,298 L733,298 L727.107661,298 L644.465166,205.925931 C643.358449,204.692909 641.856723,204.025203 640.323422,203.942433 C638.790121,203.859662 637.225243,204.361826 635.992221,205.468543 C635.831645,205.61267 635.678961,205.765355 635.534834,205.925931 L635.534834,205.925931 L552.892339,298 L547,298 C545.672366,298 544.46565,297.482477 543.570358,296.638357 C542.4684,295.599383 541.839482,294.065141 542.035477,292.392351 L542.035477,292.392351 L550.501895,282.674894 L628.346367,195.984566 C629.370005,194.844608 629.881919,193.410569 629.882077,191.976475 C629.882236,190.54238 629.370639,189.108228 628.347254,187.968044 L628.347254,187.968044 L542.068925,91.8427161 C541.789876,90.1332923 542.378612,88.5503201 543.464466,87.4644661 C544.369288,86.5596441 545.619288,86 547,86 L547,86 L552.892078,86 L635.535708,178.034952 C636.642694,179.267732 638.144565,179.93511 639.677885,180.017547 C641.211204,180.099983 642.775972,179.597478 644.008752,178.490492 C644.168647,178.346912 644.320713,178.194847 644.464292,178.034952 L644.464292,178.034952 L727.107922,86 Z M977.874236,85.9975659 C978.411358,89.5972055 977.241046,92.8022124 975.119618,94.9907999 C973.363565,96.802445 970.951722,97.9228609 968.278148,97.9961917 L968.278148,97.9961917 L892,98 C890.377056,98 888.904577,98.6443225 887.824533,99.6912244 C886.747631,100.73508 886.060397,102.179012 886.003806,103.783598 L886.003806,103.783598 L886,288 C886,290.705109 884.925857,293.159313 883.180927,294.959483 C880.993723,297.21593 877.752341,298.444008 874.251586,297.851999 L874.251586,297.851999 L874,104 C874,102.377056 873.355678,100.904577 872.308776,99.8245328 C871.264914,98.7476253 869.820972,98.0603897 868.216375,98.0038052 L868.216375,98.0038052 L792,98 C789.294891,98 786.840687,96.9258567 785.040517,95.1809271 C782.78407,92.9937226 781.555992,89.7523415 782.148001,86.2515862 L782.148001,86.2515862 Z M497.805332,185.996482 C498.492168,189.536527 497.309978,192.832158 495.071068,195.071068 C493.261424,196.880712 490.761424,198 488,198 L488,198 L376,198 C373.294891,198 370.840687,196.925857 369.040517,195.180927 C366.784329,192.993973 365.556273,189.753084 366.147797,186.252789 L366.147797,186.252789 Z" id="Combined-Shape-Copy" stroke="#FFFFFF" stroke-width="4" fill="#FFFFFF"></path>
        <path d="M1456,72 C1464.83656,72 1472,79.163444 1472,88 L1472,296 C1472,304.836556 1464.83656,312 1456,312 L1024,312 C1015.16344,312 1008,304.836556 1008,296 L1008,88 C1008,79.163444 1015.16344,72 1024,72 L1456,72 Z M64.8633785,88 C69.4054547,88 73.7334816,89.9304681 76.7681579,93.309994 L76.7681579,93.309994 L246.255951,282.057764 C246.445619,282.268984 246.71612,282.389639 247,282.389639 C247.552285,282.389639 248,281.941923 248,281.389639 L248,281.389639 L248,96 C248,91.581722 251.581722,88 256,88 L256,88 L256,296 L255.136621,296 C250.594545,296 246.266518,294.069532 243.231842,290.690006 L243.231842,290.690006 L73.7440487,101.942236 C73.5543814,101.731016 73.2838798,101.610361 73,101.610361 C72.4477153,101.610361 72,102.058077 72,102.610361 L72,102.610361 L72,288 C72,292.418278 68.418278,296 64,296 L64,296 L64,88 Z M496,88 C496,92.418278 492.418278,96 488,96 L320,96 C315.581722,96 312,99.581722 312,104 L312,280 C312,284.418278 315.581722,288 320,288 L488,288 C492.334914,288 495.864543,291.447838 495.996193,295.750821 L496,296 L320,296 C311.163444,296 304,288.836556 304,280 L304,104 C304,95.163444 311.163444,88 320,88 L496,88 Z M552,88 L634.04761,179.371202 C636.999574,182.658616 642.057589,182.930553 645.345003,179.978589 C645.558196,179.78715 645.760951,179.584396 645.95239,179.371202 L728,88 L733,88 C734.597681,88 735.903661,89.24892 735.994907,90.8237272 L736,91 L650.164354,186.632121 C647.435327,189.672614 647.435837,194.280929 650.165536,197.320818 L728,284 L736,293 C736,294.656854 734.656854,296 733,296 L728,296 L645.953555,204.590005 C643.002308,201.301947 637.944353,201.028908 634.656295,203.980154 C634.442194,204.172324 634.238615,204.375903 634.046445,204.590005 L552,296 L547,296 C545.402319,296 544.096339,294.75108 544.005093,293.176273 L544,293 L552,284 L629.834464,197.320818 C632.564163,194.280929 632.564673,189.672614 629.835646,186.632121 L544,91 C544,89.3431458 545.343146,88 547,88 L552,88 Z M976,88 L975.996193,88.2491793 C975.864543,92.5521622 972.334914,96 968,96 L968,96 L892,96 C887.581722,96 884,99.581722 884,104 L884,104 L884,288 C884,292.418278 880.418278,296 876,296 L876,296 L876,104 C876,99.581722 872.418278,96 868,96 L868,96 L792,96 C787.581722,96 784,92.418278 784,88 L784,88 L976,88 Z M1208,88 L1125.95239,179.371202 C1125.76095,179.584396 1125.5582,179.78715 1125.345,179.978589 C1122.12608,182.869053 1117.20956,182.668548 1114.23482,179.572737 L1114.04761,179.371202 L1032,88 C1027.66509,88 1024.13546,91.4478378 1024.00381,95.7508207 L1024,96 L1024,296 L1024.24918,295.996193 C1028.46941,295.867075 1031.86707,292.469413 1031.99619,288.249179 L1032,288 L1032,102.610361 C1032,102.326482 1032.12065,102.05598 1032.33187,101.866313 C1032.71119,101.525702 1033.27909,101.528464 1033.65444,101.85411 L1033.74405,101.942236 L1108.14177,184.794241 C1108.52681,185.223043 1108.93475,185.630727 1109.36378,186.015513 C1115.85208,191.83462 1125.78142,191.379275 1131.71301,185.05395 L1131.95782,184.786999 L1206.25555,101.945067 C1206.44523,101.733573 1206.71591,101.612739 1207,101.612739 C1207.51284,101.612739 1207.93551,101.99878 1207.99327,102.496118 L1208,102.612739 L1208,288 C1208,292.334914 1211.44784,295.864543 1215.75082,295.996193 L1216,296 L1216,96 C1216,91.581722 1212.41828,88 1208,88 Z M1364,88 C1359.66509,88 1356.13546,91.4478378 1356.00381,95.7508207 L1356,96 L1356,269.043596 C1356,270.179112 1355.51739,271.261115 1354.67251,272.019784 C1353.0836,273.446571 1350.66742,273.367082 1349.17485,271.875446 L1349.02381,271.716106 L1272,185.940052 L1267,185.940052 C1265.40232,185.940052 1264.09634,187.188972 1264.00509,188.763779 L1264,188.940052 L1354.09807,289.361813 C1354.29126,289.577134 1354.49598,289.781818 1354.71134,289.974963 C1357.93202,292.863469 1362.84842,292.659974 1365.82127,289.562355 L1366.00836,289.360706 L1448,197.940052 L1456,188.940052 L1455.99491,188.763779 C1455.90704,187.247298 1454.69275,186.033012 1453.17627,185.945145 L1453,185.940052 L1448,185.940052 L1370.97619,271.716106 C1370.21752,272.560982 1369.13552,273.043596 1368,273.043596 C1365.8578,273.043596 1364.10892,271.359628 1364.0049,269.243237 L1364,269.043596 L1364,88 Z M496,188 C496,192.418278 492.418278,196 488,196 L376,196 C371.665086,196 368.135457,192.552162 368.003807,188.249179 L368,188 L496,188 Z" id="Combined-Shape" fill="#000000"></path>
    </g>
</svg>