<?xml version="1.0" encoding="UTF-8"?>
<svg width="1520px" height="384px" viewBox="0 0 1520 384" version="1.1" xmlns="http://www.w3.org/2000/svg" xmlns:xlink="http://www.w3.org/1999/xlink">
    <title>nextmark-framed</title>
    <g id="nextmark-framed" stroke="none" stroke-width="1" fill="none" fill-rule="evenodd">
        <path d="M1456,66 C1462.07513,66 1467.57513,68.4624339 1471.55635,72.4436508 C1475.53757,76.4248678 1478,81.9248678 1478,88 L1478,88 L1478,296 C1478,302.075132 1475.53757,307.575132 1471.55635,311.556349 C1467.57513,315.537566 1462.07513,318 1456,318 L1456,318 L1024,318 C1017.92487,318 1012.42487,315.537566 1008.44365,311.556349 C1004.46243,307.575132 1002,302.075132 1002,296 L1002,296 L1002,88 C1002,81.9248678 1004.46243,76.4248678 1008.44365,72.4436508 C1012.42487,68.4624339 1017.92487,66 1024,66 L1024,66 Z M64.8633785,82 C70.9473896,82 76.7520444,84.5190697 80.9054998,88.9450799 L80.9054998,88.9450799 L241.99375,268.331279 L242,96 C242,92.2127259 243.503964,88.776796 245.946921,86.2565005 C249.687299,82.397711 255.630043,80.6888136 261.745002,83.1431096 L261.745002,83.1431096 L262.007192,302 L255.136621,302 C249.05261,302 243.247956,299.48093 239.0945,295.05492 L239.0945,295.05492 L78.0062499,115.668721 L78,288 C78,291.787274 76.4960358,295.223204 74.0530785,297.7435 C70.3127005,301.602289 64.369957,303.311186 58.2549981,300.85689 L58.2549981,300.85689 L57.9928077,82 Z M500.74902,82 C503.325658,88.1233419 501.700074,94.0989159 497.899495,97.8994949 C495.365993,100.432997 491.865993,102 488,102 L488,102 L320,102 C319.447715,102 318.947715,102.223858 318.585786,102.585786 C318.223858,102.947715 318,103.447715 318,104 L318,104 L318,280 C318,280.552285 318.223858,281.052285 318.585786,281.414214 C318.947715,281.776142 319.447715,282 320,282 L320,282 L488,282 C491.787274,282 495.223204,283.503964 497.7435,285.946921 C501.602067,289.687084 503.310989,295.629358 500.857315,301.743944 L500.857315,301.743944 L320,302 C313.924868,302 308.424868,299.537566 304.443651,295.556349 C300.462434,291.575132 298,286.075132 298,280 L298,280 L298,104 C298,97.9248678 300.462434,92.4248678 304.443651,88.4436508 C308.424868,84.4624339 313.924868,82 320,82 L320,82 Z M733,82 C735.389912,82 737.562063,82.9317715 739.173671,84.4512651 C741.458132,86.6051525 742.611327,89.9419021 741.672301,93.4783608 L741.672301,93.4783608 L654.62953,190.639889 C654.288402,191.01995 654.11787,191.498001 654.117922,191.976032 C654.117975,192.454064 654.288613,192.932077 654.629826,193.312063 L654.629826,193.312063 L732.474401,280.002506 L741.597217,290.265673 C742.640107,293.799471 741.57412,297.153802 739.363961,299.363961 C737.735281,300.992641 735.485281,302 733,302 L733,302 L725.322983,302 L641.488389,208.597783 C641.119483,208.186776 640.618908,207.964207 640.107807,207.936617 C639.596707,207.909027 639.075081,208.076415 638.664074,208.445321 L638.664074,208.445321 L554.677017,302 L547,302 C544.610088,302 542.437937,301.068229 540.826329,299.548735 C538.553342,297.405665 537.400285,294.091585 538.313709,290.574908 L538.313709,290.574908 L547.505684,280.024683 L625.370174,193.312063 C625.711387,192.932077 625.882025,192.454064 625.882078,191.976032 C625.88213,191.498001 625.711598,191.01995 625.37047,190.639889 L625.37047,190.639889 L538.408174,93.7525329 C537.356235,90.2120526 538.422085,86.8499933 540.636039,84.636039 C542.264719,83.0073593 544.514719,82 547,82 L547,82 L554.676233,82 L638.511903,175.36245 C638.880898,175.773377 639.381522,175.995836 639.892628,176.023315 C640.403735,176.050794 640.925324,175.883292 641.336251,175.514297 L641.336251,175.514297 L725.323767,82 Z M980.976758,81.9935359 C983.232916,88.3280643 981.566246,94.0871795 977.991769,97.774816 C975.513692,100.331343 972.105603,101.908147 968.32869,101.996189 L968.32869,101.996189 L892,102 C891.459221,102 890.968468,102.214502 890.608549,102.563376 C890.261862,102.899425 890.035199,103.35969 890.003804,103.87315 L890.003804,103.87315 L890,288 C890,291.787274 888.496036,295.223204 886.053079,297.7435 C882.312799,301.602187 876.370271,303.311096 870.255483,300.857085 L870.255483,300.857085 L870,104 C870,103.459221 869.785498,102.968468 869.436624,102.608549 C869.100563,102.261848 868.640276,102.035182 868.126791,102.003801 L868.126791,102.003801 L792,102 C788.212726,102 784.776796,100.496036 782.2565,98.0530785 C778.397813,94.3127994 776.688904,88.370271 779.142915,82.2554829 L779.142915,82.2554829 Z M500.745125,181.990751 C503.327294,188.117324 501.701988,194.097002 497.899495,197.899495 C495.365993,200.432997 491.865993,202 488,202 L488,202 L376,202 C372.212726,202 368.776796,200.496036 366.2565,198.053079 C362.398476,194.313442 360.689491,188.372312 363.141651,182.258633 L363.141651,182.258633 Z" id="Combined-Shape-Copy" stroke="#FFFFFF" stroke-width="12" fill="#FFFFFF"></path>
        <path d="M1456,72 C1464.83656,72 1472,79.163444 1472,88 L1472,296 C1472,304.836556 1464.83656,312 1456,312 L1024,312 C1015.16344,312 1008,304.836556 1008,296 L1008,88 C1008,79.163444 1015.16344,72 1024,72 L1456,72 Z M64.8633785,88 C69.4054547,88 73.7334816,89.9304681 76.7681579,93.309994 L76.7681579,93.309994 L246.255951,282.057764 C246.445619,282.268984 246.71612,282.389639 247,282.389639 C247.552285,282.389639 248,281.941923 248,281.389639 L248,281.389639 L248,96 C248,91.581722 251.581722,88 256,88 L256,88 L256,296 L255.136621,296 C250.594545,296 246.266518,294.069532 243.231842,290.690006 L243.231842,290.690006 L73.7440487,101.942236 C73.5543814,101.731016 73.2838798,101.610361 73,101.610361 C72.4477153,101.610361 72,102.058077 72,102.610361 L72,102.610361 L72,288 C72,292.418278 68.418278,296 64,296 L64,296 L64,88 Z M496,88 C496,92.418278 492.418278,96 488,96 L320,96 C315.581722,96 312,99.581722 312,104 L312,280 C312,284.418278 315.581722,288 320,288 L488,288 C492.334914,288 495.864543,291.447838 495.996193,295.750821 L496,296 L320,296 C311.163444,296 304,288.836556 304,280 L304,104 C304,95.163444 311.163444,88 320,88 L496,88 Z M552,88 L634.04761,179.371202 C636.999574,182.658616 642.057589,182.930553 645.345003,179.978589 C645.558196,179.78715 645.760951,179.584396 645.95239,179.371202 L728,88 L733,88 C734.597681,88 735.903661,89.24892 735.994907,90.8237272 L736,91 L650.164354,186.632121 C647.435327,189.672614 647.435837,194.280929 650.165536,197.320818 L728,284 L736,293 C736,294.656854 734.656854,296 733,296 L728,296 L645.953555,204.590005 C643.002308,201.301947 637.944353,201.028908 634.656295,203.980154 C634.442194,204.172324 634.238615,204.375903 634.046445,204.590005 L552,296 L547,296 C545.402319,296 544.096339,294.75108 544.005093,293.176273 L544,293 L552,284 L629.834464,197.320818 C632.564163,194.280929 632.564673,189.672614 629.835646,186.632121 L544,91 C544,89.3431458 545.343146,88 547,88 L552,88 Z M976,88 L975.996193,88.2491793 C975.864543,92.5521622 972.334914,96 968,96 L968,96 L892,96 C887.581722,96 884,99.581722 884,104 L884,104 L884,288 C884,292.418278 880.418278,296 876,296 L876,296 L876,104 C876,99.581722 872.418278,96 868,96 L868,96 L792,96 C787.581722,96 784,92.418278 784,88 L784,88 L976,88 Z M1208,88 L1125.95239,179.371202 C1125.76095,179.584396 1125.5582,179.78715 1125.345,179.978589 C1122.12608,182.869053 1117.20956,182.668548 1114.23482,179.572737 L1114.04761,179.371202 L1032,88 C1027.66509,88 1024.13546,91.4478378 1024.00381,95.7508207 L1024,96 L1024,296 L1024.24918,295.996193 C1028.46941,295.867075 1031.86707,292.469413 1031.99619,288.249179 L1032,288 L1032,102.610361 C1032,102.326482 1032.12065,102.05598 1032.33187,101.866313 C1032.71119,101.525702 1033.27909,101.528464 1033.65444,101.85411 L1033.74405,101.942236 L1108.14177,184.794241 C1108.52681,185.223043 1108.93475,185.630727 1109.36378,186.015513 C1115.85208,191.83462 1125.78142,191.379275 1131.71301,185.05395 L1131.95782,184.786999 L1206.25555,101.945067 C1206.44523,101.733573 1206.71591,101.612739 1207,101.612739 C1207.51284,101.612739 1207.93551,101.99878 1207.99327,102.496118 L1208,102.612739 L1208,288 C1208,292.334914 1211.44784,295.864543 1215.75082,295.996193 L1216,296 L1216,96 C1216,91.581722 1212.41828,88 1208,88 Z M1364,88 C1359.66509,88 1356.13546,91.4478378 1356.00381,95.7508207 L1356,96 L1356,269.043596 C1356,270.179112 1355.51739,271.261115 1354.67251,272.019784 C1353.0836,273.446571 1350.66742,273.367082 1349.17485,271.875446 L1349.02381,271.716106 L1272,185.940052 L1267,185.940052 C1265.40232,185.940052 1264.09634,187.188972 1264.00509,188.763779 L1264,188.940052 L1354.09807,289.361813 C1354.29126,289.577134 1354.49598,289.781818 1354.71134,289.974963 C1357.93202,292.863469 1362.84842,292.659974 1365.82127,289.562355 L1366.00836,289.360706 L1448,197.940052 L1456,188.940052 L1455.99491,188.763779 C1455.90704,187.247298 1454.69275,186.033012 1453.17627,185.945145 L1453,185.940052 L1448,185.940052 L1370.97619,271.716106 C1370.21752,272.560982 1369.13552,273.043596 1368,273.043596 C1365.8578,273.043596 1364.10892,271.359628 1364.0049,269.243237 L1364,269.043596 L1364,88 Z M496,188 C496,192.418278 492.418278,196 488,196 L376,196 C371.665086,196 368.135457,192.552162 368.003807,188.249179 L368,188 L496,188 Z" id="Combined-Shape" fill="#000000"></path>
    </g>
</svg>